<?xml version="1.0" encoding="UTF-8" standalone="no"?><!DOCTYPE svg PUBLIC "-//W3C//DTD SVG 1.1//EN" "http://www.w3.org/Graphics/SVG/1.1/DTD/svg11.dtd"><svg width="100%" height="100%" viewBox="0 0 240 240" version="1.1" xmlns="http://www.w3.org/2000/svg" xmlns:xlink="http://www.w3.org/1999/xlink" xml:space="preserve" xmlns:serif="http://www.serif.com/" style="fill-rule:evenodd;clip-rule:evenodd;stroke-linejoin:round;stroke-miterlimit:2;"><g id="Screenshot-2026-06-22-at-15.55.21.png" serif:id="Screenshot 2026-06-22 at 15.55.21.png"><path d="M195.143,119.98c0,0 -24.686,-53.315 -75.483,-53.048c-49.217,0.259 -75.008,53.054 -75.008,53.054c0,0 -1.722,-2.187 -17.019,-17.543c-1.99,-1.997 -26.7,-28.898 -26.7,-28.898l43.955,-44.76l44.088,45.615l0.001,-64.8l62.508,0.006l-0.006,64.783l43.944,-45.614l43.898,44.772l-44.178,46.432Z"/><path d="M195.141,119.98c0,0 1.582,1.542 16.237,16.015c2.308,2.28 27.956,28.943 27.956,28.943l-43.934,46.243l-44.202,-48.989l-0.036,68.161l-62.385,0.056l0.023,-68.283l-43.917,49.06l-43.95,-46.256l43.718,-44.945c0,0 25.171,48.88 74.976,48.88c51.792,0 75.514,-48.886 75.514,-48.886Z"/></g><circle cx="119.896" cy="119.914" r="41.197"/></svg>