<svg width="24" height="24" viewBox="0 0 24 24" xmlns="http://www.w3.org/2000/svg">
  <path fill="currentColor" fill-rule="evenodd" clip-rule="evenodd" d="M12 2C6.9 2 3 5.7 3 10.4c0 2.8 1.4 5.2 3.6 6.7v1.7c0 1.1.9 2 2 2h.4v-1.8a.6.6 0 0 1 1.2 0V21h1.2v-1.8a.6.6 0 0 1 1.2 0V21h1.2v-1.8a.6.6 0 0 1 1.2 0V21h.4c1.1 0 2-.9 2-2v-1.7c2.2-1.5 3.6-3.9 3.6-6.7C21 5.7 17.1 2 12 2ZM8.6 12.6a2.1 2.1 0 1 1 0-4.2 2.1 2.1 0 0 1 0 4.2Zm6.8 0a2.1 2.1 0 1 1 0-4.2 2.1 2.1 0 0 1 0 4.2ZM12 13.6l1.1 2.3h-2.2L12 13.6Z"/>
</svg>
