<?xml version="1.0" encoding="UTF-8" standalone="no"?><!DOCTYPE svg PUBLIC "-//W3C//DTD SVG 1.1//EN" "http://www.w3.org/Graphics/SVG/1.1/DTD/svg11.dtd"><svg width="240" height="240" viewBox="0 0 240 240" version="1.1" xmlns="http://www.w3.org/2000/svg" xmlns:xlink="http://www.w3.org/1999/xlink" xml:space="preserve" xmlns:serif="http://www.serif.com/" style="fill-rule:evenodd;clip-rule:evenodd;stroke-linejoin:round;stroke-miterlimit:2;"><g><path d="M195.132,120.634c0,0 -24.686,-53.315 -75.483,-53.048c-49.217,0.259 -75.008,53.054 -75.008,53.054c0,0 -1.722,-2.187 -17.019,-17.543c-1.99,-1.997 -26.7,-28.898 -26.7,-28.898l55.346,-51.132l25.821,24.064l0.005,-37.362l76.014,0.017l0.029,37.34l26.41,-24.058l54.762,51.135l-44.178,46.432Z"/><path d="M195.131,120.635c0,0 1.582,1.542 16.237,16.015c2.308,2.28 27.956,28.943 27.956,28.943l-54.777,51.758l-26.403,-24.921l-0.007,38.316l-76.042,-0.006l-0.005,-38.311l-25.827,24.917l-55.341,-51.76l43.718,-44.945c0,0 25.171,48.88 74.976,48.88c51.792,0 75.514,-48.886 75.514,-48.886Z"/></g></svg>
