<?xml version="1.0" encoding="UTF-8" standalone="no"?>
<!DOCTYPE svg PUBLIC "-//W3C//DTD SVG 1.1//EN" "http://www.w3.org/Graphics/SVG/1.1/DTD/svg11.dtd">
<svg width="100%" height="100%" viewBox="0 0 1000 1000" version="1.1" xmlns="http://www.w3.org/2000/svg" xmlns:xlink="http://www.w3.org/1999/xlink" xml:space="preserve" xmlns:serif="http://www.serif.com/" style="fill-rule:evenodd;clip-rule:evenodd;stroke-linejoin:round;stroke-miterlimit:2;">
    <g id="Screenshot-2026-06-22-at-15.55.21.png" serif:id="Screenshot 2026-06-22 at 15.55.21.png">
    </g>
    <g transform="matrix(1.818746,0,0,1.832969,-408.935222,-417.519513)">
        <circle cx="499.521" cy="500.37" r="72.655"/>
    </g>
    <g transform="matrix(2.056369,0,0,2.07245,-527.244105,-537.348815)">
        <circle cx="499.521" cy="500.37" r="72.655"/>
    </g>
    <g transform="matrix(2.056369,0,0,2.07245,-527.668972,-207.222337)">
        <circle cx="499.521" cy="500.37" r="72.655"/>
    </g>
    <g transform="matrix(2.056369,0,0,2.07245,-526.942541,-866.041506)">
        <circle cx="499.521" cy="500.37" r="72.655"/>
    </g>
    <g transform="matrix(2.056369,0,0,2.07245,-197.491022,-711.687155)">
        <circle cx="499.521" cy="500.37" r="72.655"/>
    </g>
    <g transform="matrix(2.056369,0,0,2.07245,-196.473035,-353.181676)">
        <circle cx="499.521" cy="500.37" r="72.655"/>
    </g>
    <g transform="matrix(2.056369,0,0,2.07245,-858.412046,-711.23212)">
        <circle cx="499.521" cy="500.37" r="72.655"/>
    </g>
    <g transform="matrix(2.056369,0,0,2.07245,-857.39406,-351.726642)">
        <circle cx="499.521" cy="500.37" r="72.655"/>
    </g>
</svg>
